<?xml version="1.0" encoding="UTF-8"?>
<svg version="1.1" xmlns="http://www.w3.org/2000/svg" width="500" height="500">
<path d="M0 0 C0 0.66 0 1.32 0 2 C0.556875 2.20625 1.11375 2.4125 1.6875 2.625 C7.45192462 6.05249572 10.65185591 12.51451161 13.875 18.1875 C16.73931137 23.15053171 19.62819573 28.06742143 22.75 32.875 C25.52393777 37.17492684 28.0053008 41.57321255 30.421875 46.08203125 C33.50497706 51.78271748 36.76389425 57.38522964 40 63 C40.66104736 64.14758789 40.66104736 64.14758789 41.33544922 65.31835938 C42.76384273 67.79641693 44.1940485 70.27341875 45.625 72.75 C46.06803467 73.51763672 46.51106934 74.28527344 46.9675293 75.07617188 C49.24479504 79.01058702 51.54907332 82.92612874 53.89453125 86.8203125 C57.96692032 93.58577535 61.9157049 100.42299166 65.87695312 107.25390625 C68.85567213 112.37612842 71.85632127 117.44732466 75.15014648 122.37451172 C76 124 76 124 76 127 C76.66 127 77.32 127 78 127 C78.3403125 127.63164062 78.680625 128.26328125 79.03125 128.9140625 C84.48775906 138.98538507 90.07760213 148.95857556 96.125 158.6875 C98.4744897 162.46849696 100.72187397 166.2578419 102.8125 170.1875 C105.51712351 175.24848043 108.48795036 180.1187137 111.5 185 C114.96722513 190.62243385 118.3116402 196.25927904 121.40625 202.09765625 C123.10787723 205.1964529 124.90674349 208.22407499 126.72216797 211.25708008 C138.92783202 231.68211388 145.27600775 251.17777215 140.1328125 275.12109375 C138.36212286 281.7790915 135.15404081 287.90794856 132 294 C131.34 294 130.68 294 130 294 C129.731875 294.7425 129.46375 295.485 129.1875 296.25 C128.04723249 298.89061949 126.90619694 300.85552844 125 303 C124.34 303 123.68 303 123 303 C123 303.66 123 304.32 123 305 C119.20513891 308.27623007 115.10654857 311.13152997 111 314 C110.31164062 314.48855469 109.62328125 314.97710937 108.9140625 315.48046875 C102.84986801 319.14811476 95.85167425 318.80019553 89 318 C83.59985297 315.68565127 79.92491239 311.0511785 77 306 C77 305.01 77 304.02 77 303 C76.34 303 75.68 303 75 303 C74.6596875 302.36835938 74.319375 301.73671875 73.96875 301.0859375 C69.76276918 293.32277078 65.40865819 285.64919482 61 278 C60.55930176 277.23494141 60.11860352 276.46988281 59.66455078 275.68164062 C53.22171485 264.48310774 53.22171485 264.48310774 46.625 253.375 C44.77703107 250.31112108 42.95789669 247.23447861 41.1875 244.125 C40.78917969 243.42632812 40.39085937 242.72765625 39.98046875 242.0078125 C39.00589505 240.01207194 38.45216885 238.16846566 38 236 C37.34 236 36.68 236 36 236 C35.6596875 235.36835938 35.319375 234.73671875 34.96875 234.0859375 C28.66243418 222.44608861 22.01155613 211.00619838 15.36865234 199.55664062 C11.17065453 192.313606 7.0193611 185.04422159 2.88378906 177.76538086 C2.40522461 176.92499268 1.92666016 176.08460449 1.43359375 175.21875 C0.80022095 174.1040332 0.80022095 174.1040332 0.15405273 172.96679688 C-0.83847548 171.27527851 -1.91211615 169.63182578 -3 168 C-3 167.01 -3 166.02 -3 165 C-3.66 165 -4.32 165 -5 165 C-5.34756348 164.35313232 -5.69512695 163.70626465 -6.05322266 163.03979492 C-10.01754246 155.7110795 -14.15909884 148.4988952 -18.375 141.3125 C-19.01566406 140.21744141 -19.65632812 139.12238281 -20.31640625 137.99414062 C-21.87616629 135.32858055 -23.43738343 132.66388615 -25 130 C-28.63436781 135.38236959 -32.17743331 140.79444411 -35.5 146.375 C-35.88236816 147.01493896 -36.26473633 147.65487793 -36.65869141 148.31420898 C-41.05938872 155.721772 -45.23004589 163.25064988 -49 171 C-49.66 171 -50.32 171 -51 171 C-51.11085937 171.55558594 -51.22171875 172.11117187 -51.3359375 172.68359375 C-53.56491401 180.45878828 -58.94235883 187.54373589 -63.29296875 194.2734375 C-65.44971332 197.7183064 -67.35469842 201.26830964 -69.26953125 204.8515625 C-71.43108873 208.78432848 -73.71154476 212.64010783 -76 216.5 C-78.74221465 221.12903183 -81.45558801 225.7581413 -84 230.5 C-86.92024059 235.93626709 -90.05556458 241.23606734 -93.19628906 246.54663086 C-95.74924898 250.86603755 -98.2708669 255.20007696 -100.75 259.5625 C-105.05489167 267.13105955 -109.45263584 274.64472049 -113.84863281 282.16064453 C-117.10433048 287.73191539 -120.32751335 293.3185289 -123.5 298.9375 C-130.10031409 310.50929531 -130.10031409 310.50929531 -133 314 C-133.66 314 -134.32 314 -135 314 C-135 314.66 -135 315.32 -135 316 C-140.61874838 319.50112964 -147.66958089 318.74134236 -154 318 C-157.78666204 316.50631669 -160.7835376 314.46750274 -164 312 C-164.71414062 311.52433594 -165.42828125 311.04867188 -166.1640625 310.55859375 C-167.8288052 309.44765988 -169.42389922 308.23347017 -171 307 C-171 306.34 -171 305.68 -171 305 C-171.66 305 -172.32 305 -173 305 C-173 304.34 -173 303.68 -173 303 C-173.66 303 -174.32 303 -175 303 C-187.59900809 288.84030397 -193.03975561 270.9815556 -192.328125 252.2734375 C-191.33082633 236.70293638 -184.54822501 224.35155591 -177 211 C-176.34 211 -175.68 211 -175 211 C-174.89042969 210.43410156 -174.78085938 209.86820313 -174.66796875 209.28515625 C-173.90279504 206.66745673 -172.76189214 204.74663656 -171.3125 202.4375 C-169.15086323 198.92034753 -167.0841994 195.38391231 -165.125 191.75 C-162.40566392 186.70699843 -159.57995199 181.73188358 -156.71533203 176.77050781 C-155.05481385 173.88588439 -153.44443351 170.9994104 -152 168 C-151.34 168 -150.68 168 -150 168 C-149.88914063 167.27345215 -149.77828125 166.5469043 -149.6640625 165.79833984 C-148.96172596 162.8387143 -147.94056591 160.82450192 -146.375 158.2265625 C-145.83713867 157.32591064 -145.29927734 156.42525879 -144.74511719 155.49731445 C-144.16922852 154.54945068 -143.59333984 153.60158691 -143 152.625 C-142.41637695 151.65071045 -141.83275391 150.6764209 -141.23144531 149.67260742 C-139.49515528 146.77712211 -137.74933373 143.8876197 -136 141 C-134.63826048 138.74917229 -133.27681598 136.49818049 -131.91796875 134.24560547 C-131.15848284 132.98858008 -130.39563842 131.73357566 -129.62890625 130.48095703 C-128.11948022 127.99344028 -126.92472231 125.77416693 -126 123 C-125.34 123 -124.68 123 -124 123 C-123.88914062 122.44441406 -123.77828125 121.88882813 -123.6640625 121.31640625 C-121.43508599 113.54121172 -116.05764117 106.45626411 -111.70703125 99.7265625 C-109.5567239 96.29197547 -107.65619951 92.75381158 -105.75 89.1796875 C-103.06456263 84.3003437 -100.2017178 79.52634565 -97.33862305 74.74951172 C-96.92136963 74.04842285 -96.50411621 73.34733398 -96.07421875 72.625 C-95.69869873 71.99851562 -95.32317871 71.37203125 -94.9362793 70.7265625 C-93.85227374 68.84724078 -93.85227374 68.84724078 -93 66 C-92.34 66 -91.68 66 -91 66 C-90.896875 65.44441406 -90.79375 64.88882813 -90.6875 64.31640625 C-89.85806825 61.52178679 -88.54801581 59.4046502 -87 56.9375 C-85.31203653 54.23919302 -84.00950639 52.02851916 -83 49 C-82.34 49 -81.68 49 -81 49 C-80.85111328 47.92105469 -80.85111328 47.92105469 -80.69921875 46.8203125 C-79.90573372 43.6197751 -78.65568711 41.60112662 -76.8125 38.875 C-74.39120909 35.19385041 -72.13242632 31.51464178 -70.0625 27.625 C-66.09042921 20.19476516 -61.67322245 13.00983367 -57 6 C-56.34 6 -55.68 6 -55 6 C-55 5.34 -55 4.68 -55 4 C-54.34 4 -53.68 4 -53 4 C-52.78601563 3.40445313 -52.57203125 2.80890625 -52.3515625 2.1953125 C-49.10449456 -3.07882676 -40.73246263 -5.68831649 -34.9375 -7.375 C-22.31415139 -9.37870613 -10.77703471 -7.01760399 0 0 Z " fill="#27C042" transform="translate(275,59)"/>
<path d="M0 0 C1.24885986 0.01135986 1.24885986 0.01135986 2.52294922 0.02294922 C13.93032628 0.32860356 22.63684742 5.23448797 31.125 12.6875 C32.5625 14.4375 32.5625 14.4375 32.5625 16.4375 C33.2225 16.4375 33.8825 16.4375 34.5625 16.4375 C41.64513297 29.40005468 44.47719197 40.17084316 40.69140625 54.8046875 C36.9418848 65.83269177 30.2669403 73.72283599 20.00390625 79.25390625 C19.19824219 79.64449219 18.39257812 80.03507812 17.5625 80.4375 C16.89089844 80.77652344 16.21929687 81.11554688 15.52734375 81.46484375 C6.64675371 85.17792282 -5.43673182 84.83358939 -14.5 81.8125 C-19.39431989 79.70224104 -23.44956242 76.95128789 -27.4375 73.4375 C-28.05496094 72.91285156 -28.67242187 72.38820313 -29.30859375 71.84765625 C-36.7619055 65.03548959 -40.88681335 55.66153984 -41.7734375 45.640625 C-41.8835827 34.49393108 -40.28353613 25.56554817 -33.4375 16.4375 C-32.7775 15.4475 -32.1175 14.4575 -31.4375 13.4375 C-30.7775 13.4375 -30.1175 13.4375 -29.4375 13.4375 C-29.4375 12.7775 -29.4375 12.1175 -29.4375 11.4375 C-28.7775 11.4375 -28.1175 11.4375 -27.4375 11.4375 C-27.4375 10.7775 -27.4375 10.1175 -27.4375 9.4375 C-25.78515625 8.03515625 -25.78515625 8.03515625 -23.5 6.5 C-22.76910156 5.99597656 -22.03820312 5.49195313 -21.28515625 4.97265625 C-14.36667463 1.24293982 -7.81618378 -0.1002687 0 0 Z " fill="#27C043" transform="translate(249.4375,290.5625)"/>
<path d="M0 0 C7.97075055 2.09756593 15.70444246 6.64533095 21 13 C21 13.66 21 14.32 21 15 C21.66 15 22.32 15 23 15 C22.67 15.66 22.34 16.32 22 17 C16.375 17.25 16.375 17.25 13 15 C12.3125 12.875 12.3125 12.875 12 11 C11.01 11 10.02 11 9 11 C9.66 9.35 10.32 7.7 11 6 C8.03 5.505 8.03 5.505 5 5 C5 4.34 5 3.68 5 3 C3.35 3 1.7 3 0 3 C0 2.01 0 1.02 0 0 Z " fill="#51C366" transform="translate(261,292)"/>
<path d="M0 0 C1.11721111 3.35163334 1.14607754 5.64363005 0 9 C-1.6459651 10.68711423 -3.31237149 12.3545622 -5 14 C-5.63292383 16.11280345 -5.63292383 16.11280345 -6 18 C-6.99 18.66 -7.98 19.32 -9 20 C-10.20450304 22.55183404 -10.20450304 22.55183404 -11 25 C-11.66 25 -12.32 25 -13 25 C-13.33 26.65 -13.66 28.3 -14 30 C-14.99 30.33 -15.98 30.66 -17 31 C-15.74149329 27.69070104 -14.32810914 24.65522155 -12.5390625 21.6015625 C-11.83136719 20.38726562 -11.83136719 20.38726562 -11.109375 19.1484375 C-10.61953125 18.31570312 -10.1296875 17.48296875 -9.625 16.625 C-8.6587025 14.97144279 -7.69255424 13.31779835 -6.7265625 11.6640625 C-6.26540039 10.87676758 -5.80423828 10.08947266 -5.32910156 9.27832031 C-3.5317415 6.19732029 -1.76338605 3.10055082 0 0 Z " fill="#5BC56A" transform="translate(147,186)"/>
<path d="M0 0 C0.66 0.66 1.32 1.32 2 2 C-1.63566563 8.68412752 -5.29224236 15.35556707 -9 22 C-9.33 22 -9.66 22 -10 22 C-11.125 16.375 -11.125 16.375 -10 13 C-9.01 12.67 -8.02 12.34 -7 12 C-7.33 11.01 -7.66 10.02 -8 9 C-7.01 9 -6.02 9 -5 9 C-4.67 7.68 -4.34 6.36 -4 5 C-3.34 5 -2.68 5 -2 5 C-2 4.01 -2 3.02 -2 2 C-1.34 2 -0.68 2 0 2 C0 1.34 0 0.68 0 0 Z " fill="#4DC25F" transform="translate(171,318)"/>
<path d="M0 0 C0.84755859 0.00322266 1.69511719 0.00644531 2.56835938 0.00976562 C3.44943359 0.01814453 4.33050781 0.02652344 5.23828125 0.03515625 C6.57729492 0.04192383 6.57729492 0.04192383 7.94335938 0.04882812 C10.14590112 0.06060642 12.34830724 0.07705461 14.55078125 0.09765625 C14.55078125 0.42765625 14.55078125 0.75765625 14.55078125 1.09765625 C12.63652344 1.29681641 12.63652344 1.29681641 10.68359375 1.5 C9.01430129 1.6781829 7.34503161 1.85657939 5.67578125 2.03515625 C4.83402344 2.12216797 3.99226563 2.20917969 3.125 2.29882812 C1.91650391 2.4293457 1.91650391 2.4293457 0.68359375 2.5625 C-0.06003418 2.64105225 -0.80366211 2.71960449 -1.56982422 2.80053711 C-3.53368191 3.01402972 -3.53368191 3.01402972 -5.44921875 4.09765625 C-7.78220535 4.13788016 -10.11628541 4.14085872 -12.44921875 4.09765625 C-12.44921875 4.75765625 -12.44921875 5.41765625 -12.44921875 6.09765625 C-13.10921875 6.09765625 -13.76921875 6.09765625 -14.44921875 6.09765625 C-14.44921875 6.75765625 -14.44921875 7.41765625 -14.44921875 8.09765625 C-16.42921875 8.42765625 -18.40921875 8.75765625 -20.44921875 9.09765625 C-15.70669135 3.32414463 -7.39372703 -0.04962233 0 0 Z " fill="#60C36D" transform="translate(244.44921875,290.90234375)"/>
<path d="M0 0 C1.43343546 2.86687092 0.56303792 4.50563683 -0.25 7.5625 C-0.50265625 8.55378906 -0.7553125 9.54507813 -1.015625 10.56640625 C-1.34046875 11.36949219 -1.6653125 12.17257813 -2 13 C-2.99 13.33 -3.98 13.66 -5 14 C-6.66176708 16.36482239 -7.86957339 18.26091588 -8.375 21.125 C-9.33276872 23.99830615 -11.40521168 24.66933933 -14 26 C-12.52230626 20.6433602 -9.99195502 16.48261074 -7 11.875 C-6.10257606 10.47758272 -5.20669097 9.07917573 -4.3125 7.6796875 C-3.91675781 7.06851074 -3.52101563 6.45733398 -3.11328125 5.82763672 C-1.9587718 3.93231703 -0.96534113 1.99735252 0 0 Z " fill="#5BC570" transform="translate(120,233)"/>
<path d="M0 0 C1 2 1 2 0.44140625 3.9453125 C0.15136719 4.66460937 -0.13867188 5.38390625 -0.4375 6.125 C-0.72496094 6.84945312 -1.01242188 7.57390625 -1.30859375 8.3203125 C-1.53675781 8.87460938 -1.76492187 9.42890625 -2 10 C-2.66 10 -3.32 10 -4 10 C-4.1546875 11.051875 -4.1546875 11.051875 -4.3125 12.125 C-5.31666862 16.32425058 -6.41692494 20.00492425 -10.1875 22.375 C-10.785625 22.58125 -11.38375 22.7875 -12 23 C-12 23.99 -12 24.98 -12 26 C-12.66 26 -13.32 26 -14 26 C-12.42370051 20.01006195 -9.23215126 15.20482573 -6 10 C-4.87199904 8.12680384 -3.74687083 6.25187395 -2.625 4.375 C-1.75 2.91666667 -0.875 1.45833333 0 0 Z " fill="#5EC470" transform="translate(174,140)"/>
<path d="M0 0 C2.46800047 1.15173355 4.04783565 2.04783565 6 4 C6.66 4.33 7.32 4.66 8 5 C8 5.33 8 5.66 8 6 C8.66 6.33 9.32 6.66 10 7 C9.34 7.66 8.68 8.32 8 9 C8.99 10.485 8.99 10.485 10 12 C10.70164642 13.98799818 11.37372872 15.98698517 12 18 C11.34 18.66 10.68 19.32 10 20 C9.61328125 19.28714844 9.2265625 18.57429688 8.828125 17.83984375 C5.30010595 11.34723836 5.30010595 11.34723836 1.625 4.9375 C0 2 0 2 0 0 Z " fill="#4DC161" transform="translate(340,342)"/>
<path d="M0 0 C0.66 0 1.32 0 2 0 C2.33 0.66 2.66 1.32 3 2 C3.99 2.33 4.98 2.66 6 3 C6.33 3.99 6.66 4.98 7 6 C7.99 5.67 8.98 5.34 10 5 C9.95875 6.093125 9.9175 7.18625 9.875 8.3125 C9.67925334 12.08892229 9.67925334 12.08892229 12 15 C11.625 17.1875 11.625 17.1875 11 19 C9.72593712 16.96028888 8.45570798 14.91834736 7.1875 12.875 C6.83107422 12.30523437 6.47464844 11.73546875 6.10742188 11.1484375 C3.86064801 7.52061915 1.85175281 3.84370141 0 0 Z " fill="#4AC164" transform="translate(251,190)"/>
<path d="M0 0 C0.66 0 1.32 0 2 0 C2.02505615 0.57032959 2.0501123 1.14065918 2.07592773 1.72827148 C2.19156549 4.29826157 2.31443624 6.86785527 2.4375 9.4375 C2.47681641 10.33533203 2.51613281 11.23316406 2.55664062 12.15820312 C2.59853516 13.01220703 2.64042969 13.86621094 2.68359375 14.74609375 C2.72025146 15.53685303 2.75690918 16.3276123 2.79467773 17.14233398 C2.80563257 19.01401441 2.80563257 19.01401441 4 20 C3.82364548 22.69082872 3.38164079 25.32851446 3 28 C2.67 28 2.34 28 2 28 C-0.26439611 18.63914824 -0.20166126 9.55650317 0 0 Z " fill="#6BC07D" transform="translate(83,307)"/>
<path d="M0 0 C0.66 0.99 1.32 1.98 2 3 C5.11610554 3.58592634 5.11610554 3.58592634 8.625 3.6875 C9.81351562 3.75324219 11.00203125 3.81898438 12.2265625 3.88671875 C13.14179688 3.92410156 14.05703125 3.96148437 15 4 C12.16974094 6.83025906 10.19694328 6.33336558 6.25 6.375 C0.48777767 6.30992357 -2.842318 6.03539723 -7 2 C-7 1.67 -7 1.34 -7 1 C-5.5459375 1.0309375 -5.5459375 1.0309375 -4.0625 1.0625 C-1.12534105 1.35618499 -1.12534105 1.35618499 0 0 Z " fill="#50BC63" transform="translate(365,371)"/>
<path d="M0 0 C0.5625 1.9375 0.5625 1.9375 1 4 C0.67 4.33 0.34 4.66 0 5 C-0.04080783 6.99958364 -0.04254356 9.00045254 0 11 C-0.99 11 -1.98 11 -3 11 C-3 11.66 -3 12.32 -3 13 C-3.66 13 -4.32 13 -5 13 C-5.33 14.32 -5.66 15.64 -6 17 C-6.99 17 -7.98 17 -9 17 C-7.51481201 12.95698825 -5.57122002 9.38853744 -3.375 5.6875 C-2.74335938 4.61886719 -2.11171875 3.55023438 -1.4609375 2.44921875 C-0.97882813 1.64097656 -0.49671875 0.83273438 0 0 Z " fill="#5EC66F" transform="translate(214,71)"/>
<path d="M0 0 C0.33 0 0.66 0 1 0 C1.937402 8.08192533 2.15408416 15.11355966 0 23 C-2.61763781 19.07354329 -2.03689847 16.00085345 -1.6875 11.5 C-1.63916016 10.72785156 -1.59082031 9.95570313 -1.54101562 9.16015625 C-1.31959489 5.92573191 -1.02915194 3.08745581 0 0 Z " fill="#70C67F" transform="translate(290,323)"/>
<path d="M0 0 C3.65316671 1.24976756 4.78065836 1.67098753 7 5 C7.99 5.33 8.98 5.66 10 6 C11.84499398 7.87617698 13.3683599 9.92737609 15 12 C14.01 12.33 13.02 12.66 12 13 C10.09765625 11.70703125 10.09765625 11.70703125 8.0625 9.8125 C7.36253906 9.16539062 6.66257813 8.51828125 5.94140625 7.8515625 C4.98041016 6.93503906 4.98041016 6.93503906 4 6 C2.7625 4.8553125 2.7625 4.8553125 1.5 3.6875 C0 2 0 2 0 0 Z " fill="#58BE6A" transform="translate(215,355)"/>
<path d="M0 0 C1.32 0.33 2.64 0.66 4 1 C2.02 4.63 0.04 8.26 -2 12 C-2.33 11.01 -2.66 10.02 -3 9 C-3.66 8.67 -4.32 8.34 -5 8 C-4.34 7.01 -3.68 6.02 -3 5 C-3 4.01 -3 3.02 -3 2 C-2.01 1.34 -1.02 0.68 0 0 Z " fill="#4AC562" transform="translate(150,352)"/>
<path d="M0 0 C0.66 0 1.32 0 2 0 C2.13277344 0.63808594 2.26554687 1.27617187 2.40234375 1.93359375 C2.57894531 2.75988281 2.75554687 3.58617187 2.9375 4.4375 C3.11152344 5.26121094 3.28554688 6.08492187 3.46484375 6.93359375 C3.80752994 8.97661204 3.80752994 8.97661204 5 10 C5.04063832 11.66617115 5.042721 13.33388095 5 15 C5.66 15.33 6.32 15.66 7 16 C6.34 16.66 5.68 17.32 5 18 C-1.60409314 7.41430867 -1.60409314 7.41430867 -0.875 2.8125 C-0.58625 1.884375 -0.2975 0.95625 0 0 Z " fill="#54C567" transform="translate(290,249)"/>
<path d="M0 0 C0.66 0.99 1.32 1.98 2 3 C2.99 3.33 3.98 3.66 5 4 C3.66511872 7.59391114 2.03977277 10.75490696 0 14 C-0.66 13.67 -1.32 13.34 -2 13 C-1.67 11.35 -1.34 9.7 -1 8 C-0.34 8 0.32 8 1 8 C0.01 6.02 -0.98 4.04 -2 2 C-1.34 1.34 -0.68 0.68 0 0 Z " fill="#48C563" transform="translate(156,336)"/>
<path d="M0 0 C1.11241681 3.33725042 1.08987444 5.6465402 0 9 C-1.9375 11.3125 -1.9375 11.3125 -4 13 C-4.66 13 -5.32 13 -6 13 C-6 13.99 -6 14.98 -6 16 C-6.66 16 -7.32 16 -8 16 C-6.55049545 12.2089881 -4.84827434 8.6125362 -3 5 C-2.34 5 -1.68 5 -1 5 C-0.67 3.35 -0.34 1.7 0 0 Z " fill="#65C773" transform="translate(195,103)"/>
<path d="M0 0 C0.66 0.33 1.32 0.66 2 1 C2.28875 1.928125 2.5775 2.85625 2.875 3.8125 C4.07567229 7.21440483 5.41112136 8.58371327 8 11 C8 11.66 8 12.32 8 13 C7.34 13 6.68 13 6 13 C6 12.34 6 11.68 6 11 C5.34 11 4.68 11 4 11 C4 10.34 4 9.68 4 9 C3.34 9 2.68 9 2 9 C0.7109375 7.46875 0.7109375 7.46875 -0.625 5.5 C-1.07101563 4.8503125 -1.51703125 4.200625 -1.9765625 3.53125 C-2.31429687 3.0259375 -2.65203125 2.520625 -3 2 C-2.01 1.34 -1.02 0.68 0 0 Z " fill="#57C36D" transform="translate(98,353)"/>
<path d="M0 0 C0.99 0.66 1.98 1.32 3 2 C1 5 1 5 0 6 C-0.04063832 7.66617115 -0.042721 9.33388095 0 11 C0.66 11.33 1.32 11.66 2 12 C1.34 12.66 0.68 13.32 0 14 C-1.32 11.36 -2.64 8.72 -4 6 C-3.34 6 -2.68 6 -2 6 C-1.855625 5.195625 -1.71125 4.39125 -1.5625 3.5625 C-1 1 -1 1 0 0 Z " fill="#47C35E" transform="translate(325,304)"/>
<path d="M0 0 C0.66 0 1.32 0 2 0 C2.67679658 1.725227 3.34102 3.45538939 4 5.1875 C4.37125 6.15042969 4.7425 7.11335938 5.125 8.10546875 C5.97636772 10.92182358 6.17072647 13.08164439 6 16 C5.67 14.68 5.34 13.36 5 12 C4.01 12 3.02 12 2 12 C2 10.02 2 8.04 2 6 C1.34 6 0.68 6 0 6 C0 4.02 0 2.04 0 0 Z " fill="#5FC66E" transform="translate(409,287)"/>
<path d="M0 0 C9 10.66666667 9 10.66666667 9 15 C6.525 14.01 6.525 14.01 4 13 C4 11.68 4 10.36 4 9 C3.34 8.54625 2.68 8.0925 2 7.625 C1.34 7.08875 0.68 6.5525 0 6 C-0.25 2.8125 -0.25 2.8125 0 0 Z " fill="#70CC82" transform="translate(321,134)"/>
<path d="M0 0 C0.66 0.66 1.32 1.32 2 2 C1.67 2.99 1.34 3.98 1 5 C0.34 5 -0.32 5 -1 5 C-1.1546875 5.86625 -1.1546875 5.86625 -1.3125 6.75 C-2.09792798 9.32049158 -3.30504197 10.93657284 -5 13 C-5 10.03 -5 7.06 -5 4 C-3.68 4 -2.36 4 -1 4 C-0.67 2.68 -0.34 1.36 0 0 Z " fill="#52C169" transform="translate(225,225)"/>
<path d="M0 0 C0.66 0 1.32 0 2 0 C1.67 2.31 1.34 4.62 1 7 C0.34 7 -0.32 7 -1 7 C-1.33 8.32 -1.66 9.64 -2 11 C-3.32 11.33 -4.64 11.66 -6 12 C-4.43358249 7.69235185 -2.31663844 3.93828536 0 0 Z " fill="#5AC36D" transform="translate(157,169)"/>
<path d="M0 0 C0.99 0.33 1.98 0.66 3 1 C3 1.66 3 2.32 3 3 C3.99 3 4.98 3 6 3 C6.33 4.98 6.66 6.96 7 9 C6.01 9 5.02 9 4 9 C0 3.85714286 0 3.85714286 0 0 Z " fill="#48BE61" transform="translate(352,362)"/>
<path d="M0 0 C1.1700097 3.91736581 0.69584017 6.97959015 0 11 C-0.66 11 -1.32 11 -2 11 C-2.33 12.32 -2.66 13.64 -3 15 C-4.83508773 9.03596489 -2.71739052 5.24817912 0 0 Z " fill="#56C168" transform="translate(213,311)"/>
<path d="M0 0 C2.0625 2.1875 2.0625 2.1875 4 5 C3.75 7.8125 3.75 7.8125 3 10 C2.01 9.67 1.02 9.34 0 9 C0 8.34 0 7.68 0 7 C-0.66 7 -1.32 7 -2 7 C-2 6.01 -2 5.02 -2 4 C-1.34 4 -0.68 4 0 4 C0 2.68 0 1.36 0 0 Z " fill="#47C058" transform="translate(284,309)"/>
<path d="M0 0 C-1.75 5.75 -1.75 5.75 -4 8 C-4 7.01 -4 6.02 -4 5 C-4.99 4.67 -5.98 4.34 -7 4 C-7 3.01 -7 2.02 -7 1 C-4 0 -4 0 0 0 Z M-9 5 C-7 6 -7 6 -7 6 Z " fill="#4EC463" transform="translate(410,345)"/>
<path d="M0 0 C0.66 0 1.32 0 2 0 C4 2 4 2 4 6 C5.32 6.33 6.64 6.66 8 7 C8 8.98 8 10.96 8 13 C8.66 13.33 9.32 13.66 10 14 C9.01 14 8.02 14 7 14 C3 7.375 3 7.375 3 4 C2.34 4 1.68 4 1 4 C0.67 2.68 0.34 1.36 0 0 Z " fill="#5BC56C" transform="translate(269,220)"/>
<path d="M0 0 C0.66 0.66 1.32 1.32 2 2 C0.35 5.3 -1.3 8.6 -3 12 C-3.66 11.34 -4.32 10.68 -5 10 C-4.625 7.375 -4.625 7.375 -4 5 C-3.34 5 -2.68 5 -2 5 C-2 4.01 -2 3.02 -2 2 C-1.34 2 -0.68 2 0 2 C0 1.34 0 0.68 0 0 Z " fill="#59C46B" transform="translate(171,318)"/>
<path d="M0 0 C1.32 0.33 2.64 0.66 4 1 C4 2.32 4 3.64 4 5 C4.66 5 5.32 5 6 5 C6 6.98 6 8.96 6 11 C5.34 11 4.68 11 4 11 C4 10.34 4 9.68 4 9 C3.34 9 2.68 9 2 9 C2 6.69 2 4.38 2 2 C1.34 2 0.68 2 0 2 C0 1.34 0 0.68 0 0 Z " fill="#42C057" transform="translate(410,298)"/>
<path d="M0 0 C0 0.66 0 1.32 0 2 C-0.66 2 -1.32 2 -2 2 C-2 2.99 -2 3.98 -2 5 C-2.99 5.33 -3.98 5.66 -5 6 C-5.33 6.66 -5.66 7.32 -6 8 C-7.65 8 -9.3 8 -11 8 C-10.34 7.67 -9.68 7.34 -9 7 C-8.731875 6.38125 -8.46375 5.7625 -8.1875 5.125 C-6.42577978 1.97244803 -3.68021707 0 0 0 Z " fill="#62C878" transform="translate(231,56)"/>
<path d="M0 0 C1.05095823 3.27524652 0.98295862 4.05396438 -0.125 7.5625 C-2.08724364 11.15994668 -3.34216283 12.31937211 -7 14 C-5.53967505 8.68972746 -3.01679014 4.53669968 0 0 Z " fill="#70C87F" transform="translate(113,245)"/>
<path d="M0 0 C0.66 0.33 1.32 0.66 2 1 C1.6875 2.875 1.6875 2.875 1 5 C0.01 5.66 -0.98 6.32 -2 7 C-2.495 7.515625 -2.99 8.03125 -3.5 8.5625 C-5 10 -5 10 -8 11 C-6.79618552 8.50638429 -5.54571278 6.31856917 -4 4 C-3.34 4 -2.68 4 -2 4 C-2 3.34 -2 2.68 -2 2 C-1.34 2 -0.68 2 0 2 C0 1.34 0 0.68 0 0 Z " fill="#69C576" transform="translate(222,300)"/>
<path d="M0 0 C1.32 0.66 2.64 1.32 4 2 C2.35 4.97 0.7 7.94 -1 11 C-1.33 11 -1.66 11 -2 11 C-2.33 9.02 -2.66 7.04 -3 5 C-2.34 5 -1.68 5 -1 5 C-0.67 3.35 -0.34 1.7 0 0 Z " fill="#51C362" transform="translate(229,215)"/>
<path d="M0 0 C0.66 0 1.32 0 2 0 C3.32421875 1.6796875 3.32421875 1.6796875 4.6875 3.875 C5.14511719 4.59429687 5.60273438 5.31359375 6.07421875 6.0546875 C6.37972656 6.69664062 6.68523437 7.33859375 7 8 C6.67 8.66 6.34 9.32 6 10 C3 8.375 3 8.375 0 6 C-0.375 2.75 -0.375 2.75 0 0 Z " fill="#55C26B" transform="translate(361,204)"/>
<path d="M0 0 C3.0916909 2.52956528 3.90931332 5.22454612 5 9 C3.35 9 1.7 9 0 9 C-1.53445094 5.93109813 -0.54984289 3.29905734 0 0 Z " fill="#52C066" transform="translate(372,221)"/>
<path d="M0 0 C1.1875 1.625 1.1875 1.625 2 4 C0.875 7.1875 0.875 7.1875 -1 10 C-3.1875 10.875 -3.1875 10.875 -5 11 C-3.55049545 7.2089881 -1.84827434 3.6125362 0 0 Z " fill="#5DC570" transform="translate(180,129)"/>
<path d="M0 0 C0.66 0.33 1.32 0.66 2 1 C-1.75 7.875 -1.75 7.875 -4 9 C-4.33 7.35 -4.66 5.7 -5 4 C-4.01 4 -3.02 4 -2 4 C-1.67 3.01 -1.34 2.02 -1 1 C-0.67 0.67 -0.34 0.34 0 0 Z " fill="#5EC26C" transform="translate(145,364)"/>
<path d="M0 0 C0.66 0 1.32 0 2 0 C2.99 2.64 3.98 5.28 5 8 C4.34 8.66 3.68 9.32 3 10 C-0.22265625 4.82421875 -0.22265625 4.82421875 -1 3 C-0.67 2.01 -0.34 1.02 0 0 Z " fill="#5AC76D" transform="translate(285,244)"/>
<path d="M0 0 C0.33 0.66 0.66 1.32 1 2 C0.0625 4.625 0.0625 4.625 -1 7 C-1.66 7 -2.32 7 -3 7 C-3.33 8.65 -3.66 10.3 -4 12 C-4.99 12.33 -5.98 12.66 -7 13 C-5.35821735 8.22390502 -2.73453298 4.20617096 0 0 Z " fill="#77CC85" transform="translate(137,204)"/>
<path d="M0 0 C0.66 0 1.32 0 2 0 C3.6875 2.375 3.6875 2.375 5 5 C4.67 5.66 4.34 6.32 4 7 C2.02 6.01 0.04 5.02 -2 4 C-1.34 2.68 -0.68 1.36 0 0 Z " fill="#50C364" transform="translate(330,151)"/>
<path d="M0 0 C-1.41225926 0.67595315 -2.83002905 1.34040059 -4.25 2 C-5.43335938 2.556875 -5.43335938 2.556875 -6.640625 3.125 C-9 4 -9 4 -13 4 C-13 3.34 -13 2.68 -13 2 C-11.5882217 1.46605821 -10.17029756 0.94834896 -8.75 0.4375 C-7.96109375 0.14746094 -7.1721875 -0.14257812 -6.359375 -0.44140625 C-3.80896548 -1.04522837 -2.44677771 -0.8473932 0 0 Z " fill="#63C071" transform="translate(271,369)"/>
<path d="M0 0 C3.53647504 1.67517239 4.7911563 2.49280817 6.3125 6.1875 C6.539375 7.115625 6.76625 8.04375 7 9 C6.34 9.66 5.68 10.32 5 11 C4.16151196 9.54462432 3.32936066 8.08559627 2.5 6.625 C1.80390625 5.40683594 1.80390625 5.40683594 1.09375 4.1640625 C0 2 0 2 0 0 Z " fill="#68C97B" transform="translate(345,351)"/>
<path d="M0 0 C1 2 1 2 0.58203125 3.875 C-1.51579094 9.66797093 -1.51579094 9.66797093 -4.1875 11.5 C-4.785625 11.665 -5.38375 11.83 -6 12 C-4.43358249 7.69235185 -2.31663844 3.93828536 0 0 Z " fill="#73CC7D" transform="translate(174,140)"/>
<path d="M0 0 C2.65183353 1.32591677 3.25136473 2.86562451 4.6875 5.4375 C5.14511719 6.24058594 5.60273438 7.04367188 6.07421875 7.87109375 C6.37972656 8.57363281 6.68523437 9.27617187 7 10 C6.67 10.66 6.34 11.32 6 12 C2.13463696 9.4230913 1.87177566 8.85973814 0.9375 4.4375 C0.76089844 3.61121094 0.58429688 2.78492187 0.40234375 1.93359375 C0.26957031 1.29550781 0.13679688 0.65742187 0 0 Z " fill="#70CA80" transform="translate(314,122)"/>
<path d="M0 0 C0.66 0 1.32 0 2 0 C1.56179109 4.55737263 1.14958831 7.57653445 -2 11 C-2 9.35 -2 7.7 -2 6 C-1.34 6 -0.68 6 0 6 C-0.66 4.68 -1.32 3.36 -2 2 C-1.34 1.34 -0.68 0.68 0 0 Z " fill="#69C97B" transform="translate(412,334)"/>
<path d="M0 0 C0.75 1.5625 0.75 1.5625 1 4 C-0.13084437 6.50286409 -1.52139516 8.67007722 -3 11 C-3.66 11 -4.32 11 -5 11 C-3.77472971 6.94718288 -2.30119506 3.55639236 0 0 Z " fill="#66C575" transform="translate(94,278)"/>
<path d="M0 0 C0.66 0.33 1.32 0.66 2 1 C0.7508258 4.45925163 -0.67527795 7.14693203 -3 10 C-3.36923077 4.58461538 -3.36923077 4.58461538 -1.5 1.625 C-1.005 1.08875 -0.51 0.5525 0 0 Z " fill="#57C06D" transform="translate(238,202)"/>
<path d="M0 0 C2.74277578 3.19990508 4.6302836 6.00499382 6 10 C3.525 9.01 3.525 9.01 1 8 C0.67 5.36 0.34 2.72 0 0 Z " fill="#61C772" transform="translate(287,76)"/>
<path d="M0 0 C4.05281712 1.22527029 7.44360764 2.69880494 11 5 C10.67 5.66 10.34 6.32 10 7 C7.525 6.01 7.525 6.01 5 5 C5 4.34 5 3.68 5 3 C4.01 3.33 3.02 3.66 2 4 C1.34 2.68 0.68 1.36 0 0 Z " fill="#6AC97F" transform="translate(264,54)"/>
<path d="M0 0 C2.97 0.33 5.94 0.66 9 1 C9 1.99 9 2.98 9 4 C9.99 4.33 10.98 4.66 12 5 C7.43545749 4.45660208 4.0271824 3.20536179 0 1 C0 0.67 0 0.34 0 0 Z " fill="#69C67C" transform="translate(229,368)"/>
<path d="M0 0 C-4.625 4.875 -4.625 4.875 -8 6 C-8 4.68 -8 3.36 -8 2 C-4.77208445 -0.1519437 -3.71599191 -0.20086443 0 0 Z " fill="#63C573" transform="translate(279,362)"/>
<path d="M0 0 C0.66 0.33 1.32 0.66 2 1 C0.68 1.33 -0.64 1.66 -2 2 C-2 2.66 -2 3.32 -2 4 C-2.66 4 -3.32 4 -4 4 C-4 4.66 -4 5.32 -4 6 C-5.98 6.33 -7.96 6.66 -10 7 C-7.01767477 3.67356033 -4.13629913 1.70847138 0 0 Z " fill="#74C980" transform="translate(234,293)"/>
<path d="M0 0 C1.32 0.99 2.64 1.98 4 3 C2.87548273 5.9719385 1.77706209 8.33440687 0 11 C-0.33 9.02 -0.66 7.04 -1 5 C-0.01 5.33 0.98 5.66 2 6 C1.34 4.02 0.68 2.04 0 0 Z " fill="#60C871" transform="translate(192,276)"/>
<path d="M0 0 C0.66 0 1.32 0 2 0 C1.67 1.32 1.34 2.64 1 4 C2.32 4.66 3.64 5.32 5 6 C4.34 7.32 3.68 8.64 3 10 C-0.22265625 4.82421875 -0.22265625 4.82421875 -1 3 C-0.67 2.01 -0.34 1.02 0 0 Z " fill="#6CCE7B" transform="translate(280,236)"/>
<path d="M0 0 C2 2 2 2 2 5 C0.125 7.1875 0.125 7.1875 -2 9 C-2.66 9 -3.32 9 -4 9 C-2.80100302 5.9168649 -1.52299523 2.93720508 0 0 Z " fill="#6EC97E" transform="translate(129,217)"/>
<path d="M0 0 C3.36720387 1.39332574 4.9859524 2.9789286 7 6 C6.01 6.33 5.02 6.66 4 7 C4 6.01 4 5.02 4 4 C2.35 4.33 0.7 4.66 -1 5 C-0.67 3.35 -0.34 1.7 0 0 Z " fill="#5DC671" transform="translate(275,61)"/>
<path d="M0 0 C0.99 0.33 1.98 0.66 3 1 C3.33 1.99 3.66 2.98 4 4 C4.66 4.33 5.32 4.66 6 5 C5.67 6.32 5.34 7.64 5 9 C0.57142857 3.85714286 0.57142857 3.85714286 0 0 Z " fill="#65C277" transform="translate(303,278)"/>
<path d="M0 0 C2.475 0.99 2.475 0.99 5 2 C5.33 4.64 5.66 7.28 6 10 C4.5 8 4.5 8 3 6 C2.443125 5.29875 1.88625 4.5975 1.3125 3.875 C0 2 0 2 0 0 Z " fill="#6AC678" transform="translate(296,267)"/>
<path d="M0 0 C0.99 0.33 1.98 0.66 3 1 C1.125 5.75 1.125 5.75 0 8 C-0.66 8 -1.32 8 -2 8 C-2 6.35 -2 4.7 -2 3 C-1.34 2.67 -0.68 2.34 0 2 C0 1.34 0 0.68 0 0 Z " fill="#55C566" transform="translate(211,247)"/>
<path d="M0 0 C0.99 1.32 1.98 2.64 3 4 C2.34 5.32 1.68 6.64 1 8 C0.01 7.67 -0.98 7.34 -2 7 C-1.34 4.69 -0.68 2.38 0 0 Z " fill="#4EC35F" transform="translate(354,190)"/>
<path d="M0 0 C0.66 0.99 1.32 1.98 2 3 C1.34 3.66 0.68 4.32 0 5 C-0.6425235 7.06874034 -0.6425235 7.06874034 -1 9 C-2.32 9.33 -3.64 9.66 -5 10 C-4.67 8.68 -4.34 7.36 -4 6 C-3.34 6 -2.68 6 -2 6 C-1.7834375 5.071875 -1.7834375 5.071875 -1.5625 4.125 C-1 2 -1 2 0 0 Z " fill="#70CC7F" transform="translate(186,119)"/>
<path d="M0 0 C2.625 -0.1875 2.625 -0.1875 5 0 C5 0.66 5 1.32 5 2 C6.32 2.33 7.64 2.66 9 3 C5.37 3 1.74 3 -2 3 C-1.34 2.01 -0.68 1.02 0 0 Z " fill="#2BB23B" transform="translate(249,370)"/>
<path d="M0 0 C1.98 0.495 1.98 0.495 4 1 C4.33 2.32 4.66 3.64 5 5 C3.35 5 1.7 5 0 5 C-0.33 4.01 -0.66 3.02 -1 2 C-0.67 1.34 -0.34 0.68 0 0 Z " fill="#3EBE56" transform="translate(405,282)"/>
<path d="M0 0 C0.33 1.32 0.66 2.64 1 4 C0.34 4 -0.32 4 -1 4 C-1.2165625 5.175625 -1.2165625 5.175625 -1.4375 6.375 C-2 9 -2 9 -3 11 C-3.66 11 -4.32 11 -5 11 C-3.125 5.25 -3.125 5.25 -2 3 C-1.34 3 -0.68 3 0 3 C0 2.01 0 1.02 0 0 Z " fill="#7AC985" transform="translate(100,267)"/>
<path d="M0 0 C3.36591427 2.72478774 4.44226276 6.06856792 6 10 C5.01 10.33 4.02 10.66 3 11 C2.67 8.69 2.34 6.38 2 4 C1.34 4 0.68 4 0 4 C0 2.68 0 1.36 0 0 Z " fill="#63C778" transform="translate(393,257)"/>
<path d="M0 0 C0.66 0 1.32 0 2 0 C2.33 0.66 2.66 1.32 3 2 C3.99 2.33 4.98 2.66 6 3 C6 4.98 6 6.96 6 9 C3.03134491 6.45543849 1.6380249 3.51005335 0 0 Z " fill="#72CD83" transform="translate(251,190)"/>
<path d="M0 0 C1.485 0.99 1.485 0.99 3 2 C2.67 4.64 2.34 7.28 2 10 C1.67 10 1.34 10 1 10 C0.67 6.7 0.34 3.4 0 0 Z " fill="#66C878" transform="translate(84,325)"/>
<path d="M0 0 C1.5 1.3125 1.5 1.3125 3 3 C3 3.99 3 4.98 3 6 C3.66 6 4.32 6 5 6 C5.33 7.32 5.66 8.64 6 10 C4 10 4 10 2.4375 8.9375 C0.35943153 6.13662511 0.32189473 3.41208416 0 0 Z " fill="#74CD85" transform="translate(348,180)"/>
<path d="M0 0 C2.79872437 2.52788007 4.45773019 4.20411134 5 8 C2.525 7.01 2.525 7.01 0 6 C0 4.02 0 2.04 0 0 Z " fill="#6FCA7C" transform="translate(336,160)"/>
<path d="M0 0 C1.98 0 3.96 0 6 0 C5.67 0.99 5.34 1.98 5 3 C3.35 3 1.7 3 0 3 C0 2.01 0 1.02 0 0 Z " fill="#57BE6A" transform="translate(131,374)"/>
<path d="M0 0 C0.33 0 0.66 0 1 0 C0.67 2.31 0.34 4.62 0 7 C-0.99 7 -1.98 7 -3 7 C-2.67 5.35 -2.34 3.7 -2 2 C-1.34 2 -0.68 2 0 2 C0 1.34 0 0.68 0 0 Z " fill="#58C16C" transform="translate(157,342)"/>
<path d="M0 0 C4 4 4 4 4.0625 7.0625 C4.041875 8.031875 4.02125 9.00125 4 10 C1.16625119 6.79663178 0.4794463 4.21912747 0 0 Z " fill="#6FCA7C" transform="translate(86,335)"/>
<path d="M0 0 C3 1 3 1 4.25 2.8125 C5.11637742 5.33943414 4.88492145 6.52221994 4 9 C0 2.25 0 2.25 0 0 Z " fill="#6EC87D" transform="translate(332,328)"/>
<path d="M0 0 C2.125 0.375 2.125 0.375 4 1 C3.01 2.32 2.02 3.64 1 5 C0.01 4.01 -0.98 3.02 -2 2 C-1.34 1.34 -0.68 0.68 0 0 Z " fill="#44BE55" transform="translate(150,352)"/>
<path d="M0 0 C2.79872437 2.52788007 4.45773019 4.20411134 5 8 C4.01 7.67 3.02 7.34 2 7 C2 6.01 2 5.02 2 4 C1.34 4 0.68 4 0 4 C0 2.68 0 1.36 0 0 Z " fill="#74C880" transform="translate(381,237)"/>
<path d="M0 0 C4 4.625 4 4.625 4 8 C2.68 7.34 1.36 6.68 0 6 C0 4.02 0 2.04 0 0 Z " fill="#51BF67" transform="translate(321,134)"/>
<path d="M0 0 C4 4.625 4 4.625 4 8 C2.68 7.34 1.36 6.68 0 6 C0 4.02 0 2.04 0 0 Z " fill="#67CB7D" transform="translate(307,110)"/>
<path d="M0 0 C2 1 2 1 3.125 4.0625 C3.41375 5.031875 3.7025 6.00125 4 7 C2.68 7 1.36 7 0 7 C0 4.69 0 2.38 0 0 Z " fill="#62CA7B" transform="translate(299,96)"/>
</svg>
